<svg width="6026" height="959" viewBox="0 0 6026 959" fill="none" xmlns="http://www.w3.org/2000/svg">
<path d="M297 623.3H245.7L5.4 239H81L213.3 452.3L270 548.6H275.4L331.2 452.3L461.7 239H536.4L297 623.3ZM303.3 842H238.5V569.3H303.3V842ZM715.978 851C672.778 851 634.978 841.1 602.578 821.3C570.178 801.5 544.978 774.2 526.978 739.4C508.978 704 499.978 663.8 499.978 618.8C499.978 574.4 508.978 535.1 526.978 500.9C544.978 466.1 570.178 438.8 602.578 419C634.978 398.6 672.778 388.4 715.978 388.4C759.178 388.4 796.678 398.6 828.478 419C860.278 438.8 884.878 466.1 902.278 500.9C919.678 535.1 928.378 574.4 928.378 618.8C928.378 663.8 919.678 704 902.278 739.4C884.878 774.2 860.278 801.5 828.478 821.3C796.678 841.1 759.178 851 715.978 851ZM715.978 792.5C769.978 792.5 808.378 777.5 831.178 747.5C854.578 717.5 866.278 674.6 866.278 618.8C866.278 563.6 854.578 521 831.178 491C808.378 461 769.978 446 715.978 446C661.978 446 623.278 461 599.878 491C576.478 521 564.778 563.6 564.778 618.8C564.778 674.6 576.478 717.5 599.878 747.5C623.278 777.5 661.978 792.5 715.978 792.5ZM1699.63 842H1634.83V582.8C1634.83 535.4 1625.83 500.6 1607.83 478.4C1589.83 456.2 1558.03 445.1 1512.43 445.1C1470.43 445.1 1438.93 456.2 1417.93 478.4C1396.93 500 1386.43 535.4 1386.43 584.6L1369.33 586.4L1365.73 490.1H1377.43C1383.43 473.9 1392.73 458.3 1405.33 443.3C1417.93 427.7 1434.43 414.8 1454.83 404.6C1475.83 393.8 1501.63 388.4 1532.23 388.4C1570.63 388.4 1602.13 395.9 1626.73 410.9C1651.33 425.9 1669.63 446.9 1681.63 473.9C1693.63 500.9 1699.63 532.4 1699.63 568.4V842ZM1072.33 842H1007.53V397.4H1066.03V538.7L1072.33 543.2V842ZM1386.43 842H1321.63V582.8C1321.63 535.4 1312.63 500.6 1294.63 478.4C1276.63 456.2 1245.43 445.1 1201.03 445.1C1158.43 445.1 1126.33 456.2 1104.73 478.4C1083.13 500 1072.33 535.4 1072.33 584.6L1055.23 586.4L1053.43 489.2H1069.63C1075.03 473.6 1084.03 458.3 1096.63 443.3C1109.23 427.7 1126.03 414.8 1147.03 404.6C1168.03 393.8 1193.83 388.4 1224.43 388.4C1261.63 388.4 1291.93 395.9 1315.33 410.9C1339.33 425.9 1357.03 447.2 1368.43 474.8C1380.43 501.8 1386.43 533.3 1386.43 569.3V842ZM2147.81 842H2089.31V744.8L2086.61 723.2V555.8C2086.61 516.8 2077.61 488.9 2059.61 472.1C2042.21 454.7 2012.51 446 1970.51 446C1929.71 446 1899.71 454.1 1880.51 470.3C1861.31 486.5 1851.71 512.6 1851.71 548.6V562.1H1788.71V554.9C1788.71 523.7 1796.21 495.5 1811.21 470.3C1826.21 445.1 1847.51 425.3 1875.11 410.9C1903.31 395.9 1936.61 388.4 1975.01 388.4C2014.61 388.4 2047.01 396.2 2072.21 411.8C2098.01 427.4 2116.91 448.4 2128.91 474.8C2141.51 500.6 2147.81 530.3 2147.81 563.9V842ZM1917.41 851C1877.21 851 1843.31 841.1 1815.71 821.3C1788.71 800.9 1775.21 772.1 1775.21 734.9C1775.21 708.5 1781.21 687.2 1793.21 671C1805.81 654.2 1823.81 640.7 1847.21 630.5C1870.61 620.3 1898.21 613.4 1930.01 609.8L2095.61 587.3V635.9L1935.41 658.4C1900.01 662.6 1874.81 669.8 1859.81 680C1845.41 689.6 1838.21 706.4 1838.21 730.4C1838.21 753.2 1845.71 770 1860.71 780.8C1876.31 791.6 1901.21 797 1935.41 797C1961.21 797 1985.51 792.2 2008.31 782.6C2031.71 773 2050.61 757.7 2065.01 736.7C2079.41 715.7 2086.61 687.5 2086.61 652.1L2099.21 761.9L2084.81 759.2C2076.41 776 2064.41 791.3 2048.81 805.1C2033.21 818.9 2014.31 830 1992.11 838.4C1970.51 846.8 1945.61 851 1917.41 851ZM2646 851C2590.8 851 2545.5 842.3 2510.1 824.9C2474.7 806.9 2448.3 783.5 2430.9 754.7C2414.1 725.3 2405.7 693.5 2405.7 659.3V645.8H2469.6V654.8C2469.6 683 2475 707.3 2485.8 727.7C2497.2 747.5 2515.8 763.1 2541.6 774.5C2567.4 785.3 2602.8 790.7 2647.8 790.7C2698.2 790.7 2735.1 782.3 2758.5 765.5C2782.5 748.7 2794.5 723.2 2794.5 689C2794.5 666.2 2790.6 647.9 2782.8 634.1C2775.6 619.7 2763 608 2745 599C2727.6 590 2703.6 582.2 2673 575.6L2568.6 553.1C2536.8 546.5 2508.9 536.9 2484.9 524.3C2461.5 511.1 2442.9 494 2429.1 473C2415.9 451.4 2409.3 424.7 2409.3 392.9C2409.3 363.5 2417.4 336.5 2433.6 311.9C2449.8 286.7 2473.8 266.9 2505.6 252.5C2538 237.5 2577.6 230 2624.4 230C2676.6 230 2719.2 239.3 2752.2 257.9C2785.8 275.9 2810.4 299.9 2826 329.9C2841.6 359.3 2849.4 390.5 2849.4 423.5V435.2H2785.5V425.3C2785.5 397.1 2780.1 373.1 2769.3 353.3C2759.1 332.9 2742 317.3 2718 306.5C2694.6 295.1 2663.1 289.4 2623.5 289.4C2573.7 289.4 2536.5 297.8 2511.9 314.6C2487.3 330.8 2475 355.4 2475 388.4C2475 411.2 2478.9 429.5 2486.7 443.3C2494.5 456.5 2507.4 467.3 2525.4 475.7C2543.4 483.5 2566.8 490.7 2595.6 497.3L2700 521.6C2733.6 528.8 2762.1 539.3 2785.5 553.1C2808.9 566.3 2826.9 583.7 2839.5 605.3C2852.7 626.9 2859.3 653.6 2859.3 685.4C2859.3 715.4 2851.5 743.3 2835.9 769.1C2820.3 794.3 2796.6 814.4 2764.8 829.4C2733 843.8 2693.4 851 2646 851ZM3135.61 851C3092.41 851 3054.61 841.1 3022.21 821.3C2989.81 801.5 2964.61 774.2 2946.61 739.4C2928.61 704 2919.61 663.8 2919.61 618.8C2919.61 574.4 2928.61 535.1 2946.61 500.9C2964.61 466.1 2989.81 438.8 3022.21 419C3054.61 398.6 3092.41 388.4 3135.61 388.4C3178.81 388.4 3216.31 398.6 3248.11 419C3279.91 438.8 3304.51 466.1 3321.91 500.9C3339.31 535.1 3348.01 574.4 3348.01 618.8C3348.01 663.8 3339.31 704 3321.91 739.4C3304.51 774.2 3279.91 801.5 3248.11 821.3C3216.31 841.1 3178.81 851 3135.61 851ZM3135.61 792.5C3189.61 792.5 3228.01 777.5 3250.81 747.5C3274.21 717.5 3285.91 674.6 3285.91 618.8C3285.91 563.6 3274.21 521 3250.81 491C3228.01 461 3189.61 446 3135.61 446C3081.61 446 3042.91 461 3019.51 491C2996.11 521 2984.41 563.6 2984.41 618.8C2984.41 674.6 2996.11 717.5 3019.51 747.5C3042.91 777.5 3081.61 792.5 3135.61 792.5ZM3492.84 842H3428.04V239H3492.84V842ZM3761.55 851C3723.15 851 3691.35 842.9 3666.15 826.7C3640.95 809.9 3622.35 787.7 3610.35 760.1C3598.35 731.9 3592.35 700.1 3592.35 664.7V397.4H3656.25V655.7C3656.25 703.7 3666.45 738.8 3686.85 761C3707.25 783.2 3739.05 794.3 3782.25 794.3C3809.25 794.3 3833.25 789.2 3854.25 779C3875.25 768.8 3891.45 752.9 3902.85 731.3C3914.25 709.1 3919.95 680.9 3919.95 646.7L3939.75 645.8V743.9H3922.65C3916.65 760.7 3906.75 777.5 3892.95 794.3C3879.75 810.5 3862.35 824 3840.75 834.8C3819.15 845.6 3792.75 851 3761.55 851ZM3983.85 842H3926.25V699.8L3919.95 695.3V397.4H3983.85V842ZM4245.83 842.9C4204.43 842.9 4172.33 833.6 4149.53 815C4126.73 795.8 4115.33 762.8 4115.33 716V404.6L4132.43 284H4180.13V719.6C4180.13 746 4186.73 763.1 4199.93 770.9C4213.13 778.7 4234.13 782.6 4262.93 782.6H4320.53V835.7C4313.33 836.9 4302.83 838.4 4289.03 840.2C4275.83 842 4261.43 842.9 4245.83 842.9ZM4320.53 453.2H4040.63V397.4H4320.53V453.2ZM4443.75 338H4378.95V239H4443.75V338ZM4443.75 842H4378.95V392H4443.75V842ZM4734.34 851C4691.14 851 4653.34 841.1 4620.94 821.3C4588.54 801.5 4563.34 774.2 4545.34 739.4C4527.34 704 4518.34 663.8 4518.34 618.8C4518.34 574.4 4527.34 535.1 4545.34 500.9C4563.34 466.1 4588.54 438.8 4620.94 419C4653.34 398.6 4691.14 388.4 4734.34 388.4C4777.54 388.4 4815.04 398.6 4846.84 419C4878.64 438.8 4903.24 466.1 4920.64 500.9C4938.04 535.1 4946.74 574.4 4946.74 618.8C4946.74 663.8 4938.04 704 4920.64 739.4C4903.24 774.2 4878.64 801.5 4846.84 821.3C4815.04 841.1 4777.54 851 4734.34 851ZM4734.34 792.5C4788.34 792.5 4826.74 777.5 4849.54 747.5C4872.94 717.5 4884.64 674.6 4884.64 618.8C4884.64 563.6 4872.94 521 4849.54 491C4826.74 461 4788.34 446 4734.34 446C4680.34 446 4641.64 461 4618.24 491C4594.84 521 4583.14 563.6 4583.14 618.8C4583.14 674.6 4594.84 717.5 4618.24 747.5C4641.64 777.5 4680.34 792.5 4734.34 792.5ZM5413.79 842H5348.99V582.8C5348.99 535.4 5339.99 500.6 5321.99 478.4C5303.99 456.2 5272.19 445.1 5226.59 445.1C5197.79 445.1 5173.19 449.9 5152.79 459.5C5132.39 469.1 5116.79 484.1 5105.99 504.5C5095.79 524.9 5090.69 551.9 5090.69 585.5L5073.59 586.4L5071.79 489.2H5087.99C5093.39 473.6 5102.69 458.3 5115.89 443.3C5129.09 427.7 5146.49 414.8 5168.09 404.6C5189.69 393.8 5215.79 388.4 5246.39 388.4C5284.79 388.4 5315.99 395.9 5339.99 410.9C5364.59 425.9 5382.89 447.2 5394.89 474.8C5407.49 501.8 5413.79 533.3 5413.79 569.3V842ZM5090.69 842H5025.89V397.4H5084.39V538.7L5090.69 543.2V842ZM5688.41 851C5627.81 851 5581.31 838.1 5548.91 812.3C5516.51 786.5 5500.31 747.8 5500.31 696.2V694.4H5563.31V705.2C5563.31 725 5566.91 741.8 5574.11 755.6C5581.31 769.4 5593.91 779.6 5611.91 786.2C5629.91 792.8 5655.71 796.1 5689.31 796.1C5716.91 796.1 5738.21 793.7 5753.21 788.9C5768.81 783.5 5779.31 775.7 5784.71 765.5C5790.71 755.3 5793.71 742.7 5793.71 727.7C5793.71 704.9 5786.21 688.4 5771.21 678.2C5756.81 668 5732.81 659.9 5699.21 653.9L5624.51 640.4C5600.51 636.2 5579.21 629.6 5560.61 620.6C5542.01 611 5527.31 597.8 5516.51 581C5505.71 563.6 5500.31 542 5500.31 516.2C5500.31 477.8 5515.61 446.9 5546.21 423.5C5576.81 400.1 5618.21 388.4 5670.41 388.4C5705.21 388.4 5735.51 394.1 5761.31 405.5C5787.71 416.9 5808.41 434 5823.41 456.8C5839.01 479 5846.81 506.9 5846.81 540.5V545H5784.71V536.9C5784.71 519.5 5781.71 503.9 5775.71 490.1C5769.71 475.7 5758.31 464.3 5741.51 455.9C5724.71 447.5 5700.71 443.3 5669.51 443.3C5628.11 443.3 5599.91 449.6 5584.91 462.2C5569.91 474.8 5562.41 492.5 5562.41 515.3C5562.41 538.1 5569.01 554.3 5582.21 563.9C5595.41 573.5 5618.51 581.6 5651.51 588.2L5727.11 602.6C5752.91 606.8 5775.41 614 5794.61 624.2C5813.81 633.8 5828.81 647 5839.61 663.8C5850.41 680 5855.81 700.1 5855.81 724.1C5855.81 764.3 5840.81 795.5 5810.81 817.7C5780.81 839.9 5740.01 851 5688.41 851Z" fill="black"/>
<path d="M6026 308C6026 346.66 5994.66 378 5956 378C5917.34 378 5886 346.66 5886 308C5886 269.34 5917.34 238 5956 238C5994.66 238 6026 269.34 6026 308Z" fill="black"/>
</svg>
